<!DOCTYPE svg PUBLIC "-//W3C//DTD SVG 1.1//EN" "http://www.w3.org/Graphics/SVG/1.1/DTD/svg11.dtd">
<!-- Uploaded to: SVG Repo, www.svgrepo.com, Transformed by: SVG Repo Mixer Tools -->
<svg width="800px" height="800px" viewBox="0 0 60 60" xmlns="http://www.w3.org/2000/svg" fill="#000000">
<g id="SVGRepo_bgCarrier" stroke-width="0"/>
<g id="SVGRepo_tracerCarrier" stroke-linecap="round" stroke-linejoin="round"/>
<g id="SVGRepo_iconCarrier">
<rect fill="#ffffff" height="60" rx="10" width="60"/>
<path d="M12,52V24A16,16,0,0,1,28,8h0A16,16,0,0,1,44,24V52Z" fill="#fe4520"/>
<path d="M44,53.5A1.5,1.5,0,0,1,42.5,52V24a14.5,14.5,0,0,0-29,0V52a1.5,1.5,0,0,1-3,0V24a17.5,17.5,0,0,1,35,0V52A1.5,1.5,0,0,1,44,53.5Z" fill="#290000"/>
<rect fill="#ffffff" height="20" rx="10" width="26" x="8" y="18"/>
<path d="M24,39.5H18a11.5,11.5,0,0,1,0-23h6a11.5,11.5,0,0,1,0,23Zm-6-20a8.5,8.5,0,0,0,0,17h6a8.5,8.5,0,0,0,0-17Z" fill="#030303"/>
<path d="M8,29.5A1.5,1.5,0,0,1,6.5,28,11.513,11.513,0,0,1,18,16.5h6a1.5,1.5,0,0,1,0,3H18A8.51,8.51,0,0,0,9.5,28,1.5,1.5,0,0,1,8,29.5Z" fill="#6b6b6b"/>
<path d="M52,52V32a4,4,0,0,0-4-4H44V52Z" fill="#fe4520"/>
<path d="M52,53.5A1.5,1.5,0,0,1,50.5,52V32A2.5,2.5,0,0,0,48,29.5H45.5V52a1.5,1.5,0,0,1-3,0V28A1.5,1.5,0,0,1,44,26.5h4A5.506,5.506,0,0,1,53.5,32V52A1.5,1.5,0,0,1,52,53.5Z" fill="#290000"/>
</g>
</svg>